# File created by Blade
# Date/Time:  Wed Jan 21 14:55:15 2015
# Frame Rate: 120.000 fps
#------------------------------------------------------
:FULLY-SPECIFIED
:DEGREES
1030
root 21.305111 35.557383 -22.430503 -176.031697 -1.769101 -178.447524
Spine -18.407087 -0.494788 -0.167291
Head 13.187561 -2.131223 0.374825
LeftShoulder -15.240590 -29.840724 16.910899
LeftArm 8.160720 2.821663 -8.891980
LeftForeArm 9.912195 -0.000000 -2.290120
LeftHand -9.787994 -0.000000 -2.927075
LeftHandThumb1 -26.253704 0.000000 33.147579
RightShoulder -13.219385 -5.390028 -6.673118
RightArm 9.951973 40.682136 14.174522
RightForeArm -34.988775 -0.000000 6.260175
RightHand -10.584922 0.000000 4.837040
RightHandThumb1 -24.326973 -0.000000 -32.862282
LeftUpLeg 2.037738 12.876051 4.409190
LeftLeg -4.883074 -0.000000 0.000000
LeftFoot -18.797081 25.174813 -13.649271
LeftToeBase 26.525541 -0.000000 -0.000000
RightUpLeg 0.631542 -10.693412 -1.253685
RightLeg -2.645329 -0.000000 0.000000
RightFoot -18.574423 -23.880186 16.966726
RightToeBase 24.443667 -0.000000 -0.000000
1031
root 21.301500 35.556630 -22.445579 -176.030888 -1.716069 -178.443837
Spine -18.361366 -0.483844 -0.141230
Head 13.192381 -2.219347 0.358047
LeftShoulder -15.205115 -29.832525 16.919013
LeftArm 8.045356 2.865537 -8.924888
LeftForeArm 9.946652 -0.000000 -2.268551
LeftHand -9.671272 -0.000000 -2.911564
LeftHandThumb1 -26.253704 0.000000 33.147579
RightShoulder -13.253639 -5.369131 -6.696053
RightArm 9.943068 40.611832 14.158414
RightForeArm -34.972441 -0.000000 6.271242
RightHand -10.630431 0.000000 4.757554
RightHandThumb1 -24.326973 -0.000000 -32.862282
LeftUpLeg 2.060242 12.858959 4.412342
LeftLeg -4.855574 -0.000000 0.000000
LeftFoot -18.850896 25.226897 -13.671016
LeftToeBase 26.566804 -0.000000 -0.000000
RightUpLeg 0.633155 -10.653828 -1.259501
RightLeg -2.619045 -0.000000 0.000000
RightFoot -18.589145 -23.846709 17.058838
RightToeBase 24.199498 -0.000000 -0.000000
1032
root 21.297941 35.555737 -22.463033 -176.048811 -1.656697 -178.440970
Spine -18.292871 -0.483213 -0.123073
Head 13.180158 -2.225782 0.415615
LeftShoulder -15.273028 -29.864326 17.000911
LeftArm 8.022505 2.989829 -8.996921
LeftForeArm 9.994141 0.000000 -2.277982
LeftHand -9.707723 -0.000000 -2.840797
LeftHandThumb1 -26.253704 0.000000 33.147579
RightShoulder -13.259905 -5.344185 -6.704323
RightArm 9.915715 40.531500 14.110051
RightForeArm -34.947473 0.000000 6.273566
RightHand -10.613190 -0.000000 4.719185
RightHandThumb1 -24.326973 -0.000000 -32.862282
LeftUpLeg 2.118309 12.820090 4.415967
LeftLeg -4.853636 -0.000000 0.000000
LeftFoot -18.905203 25.324917 -13.708892
LeftToeBase 26.516103 -0.000000 -0.000000
RightUpLeg 0.667074 -10.566279 -1.270323
RightLeg -2.607294 -0.000000 0.000000
RightFoot -18.624239 -23.906161 17.071478
RightToeBase 24.212600 -0.000000 -0.000000
1033
root 21.294842 35.555021 -22.480015 -176.078943 -1.609534 -178.426672
Spine -18.212634 -0.501993 -0.080831
Head 13.227432 -2.242452 0.383960
LeftShoulder -15.297428 -29.819296 17.016475
LeftArm 7.979281 3.094480 -9.007547
LeftForeArm 9.957518 -0.000000 -2.254768
LeftHand -9.662574 -0.000000 -2.955321
LeftHandThumb1 -26.253704 0.000000 33.147579
RightShoulder -13.282072 -5.440643 -6.690519
RightArm 9.997391 40.600285 14.128051
RightForeArm -34.923997 0.000000 6.265621
RightHand -10.566541 0.000000 4.693096
RightHandThumb1 -24.326973 -0.000000 -32.862282
LeftUpLeg 2.182261 12.779197 4.433455
LeftLeg -4.843990 -0.000000 0.000000
LeftFoot -18.969579 25.409570 -13.749668
LeftToeBase 26.519077 -0.000000 -0.000000
RightUpLeg 0.712857 -10.508928 -1.272360
RightLeg -2.595532 -0.000000 0.000000
RightFoot -18.654354 -23.911188 17.113110
RightToeBase 24.207031 -0.000000 -0.000000
1034
root 21.291217 35.553948 -22.496119 -176.098918 -1.543609 -178.419284
Spine -18.143150 -0.493951 -0.059597
Head 13.222322 -2.248790 0.418157
LeftShoulder -15.316439 -29.673081 17.019930
LeftArm 7.975837 3.027288 -9.034750
LeftForeArm 9.914400 -0.000000 -2.251518
LeftHand -9.646061 -0.000000 -2.986585
LeftHandThumb1 -26.253704 0.000000 33.147579
RightShoulder -13.367654 -5.395363 -6.679942
RightArm 10.147906 40.470831 14.151108
RightForeArm -35.043564 -0.000000 6.269589
RightHand -10.668841 0.000000 4.693137
RightHandThumb1 -24.326973 -0.000000 -32.862282
LeftUpLeg 2.244312 12.739325 4.440227
LeftLeg -4.847518 -0.000000 0.000000
LeftFoot -19.016704 25.515973 -13.772280
LeftToeBase 26.443974 -0.000000 -0.000000
RightUpLeg 0.734268 -10.465762 -1.282539
RightLeg -2.562244 -0.000000 0.000000
RightFoot -18.670840 -23.872607 17.138661
RightToeBase 24.148230 -0.000000 -0.000000
1035
root 21.288166 35.553224 -22.510747 -176.111331 -1.473179 -178.404946
Spine -18.092485 -0.471841 -0.038085
Head 13.279927 -2.317761 0.429699
LeftShoulder -15.263136 -29.649868 17.030352
LeftArm 7.904214 3.109986 -9.032829
LeftForeArm 9.826116 -0.000000 -2.317281
LeftHand -9.626088 0.000000 -2.874213
LeftHandThumb1 -26.253704 0.000000 33.147579
RightShoulder -13.386550 -5.405516 -6.682932
RightArm 10.176667 40.419360 14.128095
RightForeArm -34.947753 -0.000000 6.261124
RightHand -10.564828 -0.000000 4.659609
RightHandThumb1 -24.326973 -0.000000 -32.862282
LeftUpLeg 2.297948 12.726522 4.453436
LeftLeg -4.854769 -0.000000 0.000000
LeftFoot -19.057282 25.610517 -13.787197
LeftToeBase 26.451336 -0.000000 -0.000000
RightUpLeg 0.746447 -10.418035 -1.288270
RightLeg -2.529044 -0.000000 0.000000
RightFoot -18.690628 -23.821396 17.172852
RightToeBase 24.208287 -0.000000 -0.000000
1036
root 21.281610 35.552518 -22.524377 -176.122452 -1.396842 -178.397635
Spine -18.042060 -0.452609 -0.012557
Head 13.367179 -2.381078 0.410572
LeftShoulder -15.265541 -29.634259 17.054836
LeftArm 7.872504 3.126480 -9.048214
LeftForeArm 9.840787 0.000000 -2.336615
LeftHand -9.647604 0.000000 -2.968380
LeftHandThumb1 -26.253704 0.000000 33.147579
RightShoulder -13.406170 -5.455577 -6.676443
RightArm 10.272692 40.449963 14.135288
RightForeArm -34.963161 -0.000000 6.240101
RightHand -10.506318 -0.000000 4.642212
RightHandThumb1 -24.326973 -0.000000 -32.862282
LeftUpLeg 2.350983 12.735238 4.452522
LeftLeg -4.861921 -0.000000 0.000000
LeftFoot -19.107853 25.677955 -13.814069
LeftToeBase 26.448411 -0.000000 -0.000000
RightUpLeg 0.747809 -10.382191 -1.299496
RightLeg -2.491512 -0.000000 0.000000
RightFoot -18.702514 -23.796992 17.107804
RightToeBase 24.317874 -0.000000 -0.000000
1037
root 21.274674 35.552233 -22.538601 -176.145432 -1.319617 -178.394044
Spine -17.979745 -0.440471 0.017822
Head 13.387175 -2.356244 0.458852
LeftShoulder -15.291988 -29.496658 17.056467
LeftArm 7.884043 2.990822 -9.074598
LeftForeArm 9.731111 -0.000000 -2.359033
LeftHand -9.523450 -0.000000 -3.125115
LeftHandThumb1 -26.253704 0.000000 33.147579
RightShoulder -13.411150 -5.448411 -6.713841
RightArm 10.334022 40.370653 14.152530
RightForeArm -34.939109 -0.000000 6.269048
RightHand -10.499371 -0.000000 4.670761
RightHandThumb1 -24.326973 -0.000000 -32.862282
LeftUpLeg 2.425051 12.735593 4.450737
LeftLeg -4.886403 -0.000000 0.000000
LeftFoot -19.135002 25.757117 -13.837183
LeftToeBase 26.418481 -0.000000 -0.000000
RightUpLeg 0.776323 -10.367469 -1.320263
RightLeg -2.477405 -0.000000 0.000000
RightFoot -18.697735 -23.731218 17.129196
RightToeBase 24.352902 -0.000000 -0.000000
1038
root 21.270825 35.551325 -22.552905 -176.150035 -1.246401 -178.379733
Spine -17.940298 -0.441624 0.055084
Head 13.447232 -2.346347 0.466492
LeftShoulder -15.310048 -29.570783 17.091629
LeftArm 7.827531 3.111158 -9.043259
LeftForeArm 9.579908 -0.000000 -2.364739
LeftHand -9.607663 -0.000000 -2.998345
LeftHandThumb1 -26.253704 0.000000 33.147579
RightShoulder -13.415981 -5.478376 -6.739535
RightArm 10.421550 40.332977 14.186272
RightForeArm -34.925150 -0.000000 6.301152
RightHand -10.513691 0.000000 4.667959
RightHandThumb1 -24.326973 -0.000000 -32.862282
LeftUpLeg 2.479490 12.758513 4.461536
LeftLeg -4.906952 -0.000000 0.000000
LeftFoot -19.173307 25.808474 -13.841291
LeftToeBase 26.454054 -0.000000 -0.000000
RightUpLeg 0.788547 -10.354596 -1.321334
RightLeg -2.468963 -0.000000 0.000000
RightFoot -18.684843 -23.675354 17.119999
RightToeBase 24.374998 -0.000000 -0.000000
